%TF.GenerationSoftware,KiCad,Pcbnew,7.0.10*%
%TF.CreationDate,2024-11-13T09:03:05+00:00*%
%TF.ProjectId,CellularAutomaton-R,43656c6c-756c-4617-9241-75746f6d6174,rev?*%
%TF.SameCoordinates,Original*%
%TF.FileFunction,Soldermask,Bot*%
%TF.FilePolarity,Negative*%
%FSLAX46Y46*%
G04 Gerber Fmt 4.6, Leading zero omitted, Abs format (unit mm)*
G04 Created by KiCad (PCBNEW 7.0.10) date 2024-11-13 09:03:05*
%MOMM*%
%LPD*%
G01*
G04 APERTURE LIST*
G04 Aperture macros list*
%AMRoundRect*
0 Rectangle with rounded corners*
0 $1 Rounding radius*
0 $2 $3 $4 $5 $6 $7 $8 $9 X,Y pos of 4 corners*
0 Add a 4 corners polygon primitive as box body*
4,1,4,$2,$3,$4,$5,$6,$7,$8,$9,$2,$3,0*
0 Add four circle primitives for the rounded corners*
1,1,$1+$1,$2,$3*
1,1,$1+$1,$4,$5*
1,1,$1+$1,$6,$7*
1,1,$1+$1,$8,$9*
0 Add four rect primitives between the rounded corners*
20,1,$1+$1,$2,$3,$4,$5,0*
20,1,$1+$1,$4,$5,$6,$7,0*
20,1,$1+$1,$6,$7,$8,$9,0*
20,1,$1+$1,$8,$9,$2,$3,0*%
G04 Aperture macros list end*
%ADD10R,1.600000X1.600000*%
%ADD11O,1.600000X1.600000*%
%ADD12C,1.400000*%
%ADD13O,1.400000X1.400000*%
%ADD14C,1.600000*%
%ADD15R,1.700000X1.700000*%
%ADD16O,1.700000X1.700000*%
%ADD17C,3.200000*%
%ADD18R,1.800000X1.100000*%
%ADD19RoundRect,0.275000X-0.625000X0.275000X-0.625000X-0.275000X0.625000X-0.275000X0.625000X0.275000X0*%
%ADD20O,1.500000X2.200000*%
%ADD21O,2.200000X1.500000*%
G04 APERTURE END LIST*
D10*
%TO.C,D12*%
X126365000Y-66040000D03*
D11*
X126365000Y-73660000D03*
%TD*%
D12*
%TO.C,R10*%
X183515000Y-74930000D03*
D13*
X191135000Y-74930000D03*
%TD*%
D12*
%TO.C,R43*%
X165100000Y-68620000D03*
D13*
X157480000Y-68620000D03*
%TD*%
D12*
%TO.C,R38*%
X183515000Y-107315000D03*
D13*
X191135000Y-107315000D03*
%TD*%
D12*
%TO.C,R27*%
X183515000Y-55245000D03*
D13*
X191135000Y-55245000D03*
%TD*%
D10*
%TO.C,D14*%
X121285000Y-66040000D03*
D11*
X121285000Y-73660000D03*
%TD*%
D12*
%TO.C,R45*%
X165100000Y-73700000D03*
D13*
X157480000Y-73700000D03*
%TD*%
D12*
%TO.C,R63*%
X167005000Y-105410000D03*
D13*
X159385000Y-105410000D03*
%TD*%
D14*
%TO.C,FB1*%
X144780000Y-126365000D03*
D11*
X152400000Y-126365000D03*
%TD*%
D15*
%TO.C,J15*%
X194945000Y-94615000D03*
D16*
X194945000Y-97155000D03*
X194945000Y-99695000D03*
X194945000Y-102235000D03*
X194945000Y-104775000D03*
X194945000Y-107315000D03*
X194945000Y-109855000D03*
X194945000Y-112395000D03*
%TD*%
D12*
%TO.C,R22*%
X183515000Y-129530000D03*
D13*
X191135000Y-129530000D03*
%TD*%
D10*
%TO.C,U3*%
X161925000Y-99695000D03*
D11*
X164465000Y-99695000D03*
X167005000Y-99695000D03*
X169545000Y-99695000D03*
X172085000Y-99695000D03*
X174625000Y-99695000D03*
X177165000Y-99695000D03*
X177165000Y-92075000D03*
X174625000Y-92075000D03*
X172085000Y-92075000D03*
X169545000Y-92075000D03*
X167005000Y-92075000D03*
X164465000Y-92075000D03*
X161925000Y-92075000D03*
%TD*%
D12*
%TO.C,R17*%
X183515000Y-116830000D03*
D13*
X191135000Y-116830000D03*
%TD*%
D12*
%TO.C,R61*%
X172085000Y-102870000D03*
D13*
X179705000Y-102870000D03*
%TD*%
D12*
%TO.C,R16*%
X183515000Y-90170000D03*
D13*
X191135000Y-90170000D03*
%TD*%
D12*
%TO.C,R2*%
X149225000Y-55880000D03*
D13*
X149225000Y-63500000D03*
%TD*%
D12*
%TO.C,R34*%
X183515000Y-97155000D03*
D13*
X191135000Y-97155000D03*
%TD*%
D12*
%TO.C,R49*%
X172085000Y-88900000D03*
D13*
X179705000Y-88900000D03*
%TD*%
D10*
%TO.C,C2*%
X165100000Y-133390000D03*
D14*
X165100000Y-135890000D03*
%TD*%
D10*
%TO.C,D7*%
X136525000Y-55880000D03*
D11*
X136525000Y-63500000D03*
%TD*%
D12*
%TO.C,R6*%
X128905000Y-55880000D03*
D13*
X128905000Y-63500000D03*
%TD*%
D12*
%TO.C,R64*%
X150495000Y-105410000D03*
D13*
X150495000Y-97790000D03*
%TD*%
D12*
%TO.C,R57*%
X165735000Y-120025000D03*
D13*
X158115000Y-120025000D03*
%TD*%
D12*
%TO.C,R5*%
X133985000Y-55880000D03*
D13*
X133985000Y-63500000D03*
%TD*%
D12*
%TO.C,R20*%
X183515000Y-124450000D03*
D13*
X191135000Y-124450000D03*
%TD*%
D12*
%TO.C,R31*%
X183515000Y-65405000D03*
D13*
X191135000Y-65405000D03*
%TD*%
D15*
%TO.C,J9*%
X154305000Y-51435000D03*
D16*
X151765000Y-51435000D03*
X149225000Y-51435000D03*
X146685000Y-51435000D03*
X144145000Y-51435000D03*
X141605000Y-51435000D03*
%TD*%
D17*
%TO.C,REF\u002A\u002A*%
X116840000Y-52070000D03*
%TD*%
D12*
%TO.C,R40*%
X183515000Y-112395000D03*
D13*
X191135000Y-112395000D03*
%TD*%
D12*
%TO.C,R47*%
X165100000Y-78780000D03*
D13*
X157480000Y-78780000D03*
%TD*%
D10*
%TO.C,D9*%
X131445000Y-55880000D03*
D11*
X131445000Y-63500000D03*
%TD*%
D12*
%TO.C,R66*%
X153035000Y-105410000D03*
D13*
X153035000Y-113030000D03*
%TD*%
D10*
%TO.C,D6*%
X141605000Y-66040000D03*
D11*
X141605000Y-73660000D03*
%TD*%
D10*
%TO.C,D4*%
X146685000Y-66040000D03*
D11*
X146685000Y-73660000D03*
%TD*%
D15*
%TO.C,J10*%
X136525000Y-51435000D03*
D16*
X133985000Y-51435000D03*
X131445000Y-51435000D03*
X128905000Y-51435000D03*
X126365000Y-51435000D03*
X123825000Y-51435000D03*
%TD*%
D10*
%TO.C,U4*%
X137160000Y-102870000D03*
D11*
X137160000Y-105410000D03*
X137160000Y-107950000D03*
X137160000Y-110490000D03*
X144780000Y-110490000D03*
X144780000Y-107950000D03*
X144780000Y-105410000D03*
X144780000Y-102870000D03*
%TD*%
D12*
%TO.C,R32*%
X183515000Y-67945000D03*
D13*
X191135000Y-67945000D03*
%TD*%
D12*
%TO.C,R8*%
X168910000Y-60325000D03*
D13*
X176530000Y-60325000D03*
%TD*%
D14*
%TO.C,C11*%
X178435000Y-137160000D03*
X178435000Y-132160000D03*
%TD*%
D12*
%TO.C,R65*%
X155575000Y-92075000D03*
D13*
X155575000Y-99695000D03*
%TD*%
D12*
%TO.C,R25*%
X183515000Y-50165000D03*
D13*
X191135000Y-50165000D03*
%TD*%
D12*
%TO.C,R4*%
X139065000Y-55880000D03*
D13*
X139065000Y-63500000D03*
%TD*%
D12*
%TO.C,R7*%
X123825000Y-55880000D03*
D13*
X123825000Y-63500000D03*
%TD*%
D10*
%TO.C,D8*%
X136525000Y-66040000D03*
D11*
X136525000Y-73660000D03*
%TD*%
D10*
%TO.C,D3*%
X146685000Y-55880000D03*
D11*
X146685000Y-63500000D03*
%TD*%
D12*
%TO.C,R21*%
X183515000Y-126990000D03*
D13*
X191135000Y-126990000D03*
%TD*%
D10*
%TO.C,U2*%
X169505000Y-109855000D03*
D11*
X169505000Y-112395000D03*
X169505000Y-114935000D03*
X169505000Y-117475000D03*
X169505000Y-120015000D03*
X169505000Y-122555000D03*
X169505000Y-125095000D03*
X169505000Y-127635000D03*
X177125000Y-127635000D03*
X177125000Y-125095000D03*
X177125000Y-122555000D03*
X177125000Y-120015000D03*
X177125000Y-117475000D03*
X177125000Y-114935000D03*
X177125000Y-112395000D03*
X177125000Y-109855000D03*
%TD*%
D12*
%TO.C,R62*%
X167005000Y-102870000D03*
D13*
X159385000Y-102870000D03*
%TD*%
D12*
%TO.C,R11*%
X183515000Y-77470000D03*
D13*
X191135000Y-77470000D03*
%TD*%
D12*
%TO.C,R54*%
X165735000Y-112405000D03*
D13*
X158115000Y-112405000D03*
%TD*%
D12*
%TO.C,R68*%
X133985000Y-100290000D03*
D13*
X133985000Y-107910000D03*
%TD*%
D10*
%TO.C,D5*%
X141605000Y-55880000D03*
D11*
X141605000Y-63500000D03*
%TD*%
D12*
%TO.C,R37*%
X183515000Y-104775000D03*
D13*
X191135000Y-104775000D03*
%TD*%
D12*
%TO.C,R26*%
X183515000Y-52705000D03*
D13*
X191135000Y-52705000D03*
%TD*%
D12*
%TO.C,R59*%
X165735000Y-125105000D03*
D13*
X158115000Y-125105000D03*
%TD*%
D14*
%TO.C,C10*%
X175855000Y-137160000D03*
X170855000Y-137160000D03*
%TD*%
D15*
%TO.C,J13*%
X130175000Y-102840000D03*
D16*
X130175000Y-105380000D03*
X130175000Y-107920000D03*
X130175000Y-110460000D03*
%TD*%
D12*
%TO.C,R36*%
X183515000Y-102235000D03*
D13*
X191135000Y-102235000D03*
%TD*%
D12*
%TO.C,R13*%
X183515000Y-82550000D03*
D13*
X191135000Y-82550000D03*
%TD*%
D10*
%TO.C,C3*%
X139700000Y-120015000D03*
D14*
X137200000Y-120015000D03*
%TD*%
D10*
%TO.C,D2*%
X151765000Y-66040000D03*
D11*
X151765000Y-73660000D03*
%TD*%
D12*
%TO.C,R50*%
X167005000Y-88900000D03*
D13*
X159385000Y-88900000D03*
%TD*%
D10*
%TO.C,D11*%
X126365000Y-55880000D03*
D11*
X126365000Y-63500000D03*
%TD*%
D14*
%TO.C,C8*%
X169625000Y-105410000D03*
X174625000Y-105410000D03*
%TD*%
D12*
%TO.C,R56*%
X165735000Y-117485000D03*
D13*
X158115000Y-117485000D03*
%TD*%
D12*
%TO.C,R42*%
X165100000Y-66080000D03*
D13*
X157480000Y-66080000D03*
%TD*%
D12*
%TO.C,R44*%
X165100000Y-71160000D03*
D13*
X157480000Y-71160000D03*
%TD*%
D12*
%TO.C,R39*%
X183515000Y-109855000D03*
D13*
X191135000Y-109855000D03*
%TD*%
D17*
%TO.C,REF\u002A\u002A*%
X177800000Y-52070000D03*
%TD*%
D18*
%TO.C,U5*%
X171685000Y-131445000D03*
D19*
X173755000Y-132715000D03*
X171685000Y-133985000D03*
%TD*%
D10*
%TO.C,D10*%
X131445000Y-66040000D03*
D11*
X131445000Y-73660000D03*
%TD*%
D15*
%TO.C,J12*%
X194945000Y-116840000D03*
D16*
X194945000Y-119380000D03*
X194945000Y-121920000D03*
X194945000Y-124460000D03*
X194945000Y-127000000D03*
X194945000Y-129540000D03*
X194945000Y-132080000D03*
X194945000Y-134620000D03*
X194945000Y-137160000D03*
%TD*%
D12*
%TO.C,R48*%
X165100000Y-81320000D03*
D13*
X157480000Y-81320000D03*
%TD*%
D12*
%TO.C,R55*%
X165735000Y-114945000D03*
D13*
X158115000Y-114945000D03*
%TD*%
D12*
%TO.C,R3*%
X144145000Y-55880000D03*
D13*
X144145000Y-63500000D03*
%TD*%
D14*
%TO.C,C9*%
X169545000Y-89495000D03*
X169545000Y-84495000D03*
%TD*%
D12*
%TO.C,R19*%
X183515000Y-121910000D03*
D13*
X191135000Y-121910000D03*
%TD*%
D12*
%TO.C,R35*%
X183515000Y-99695000D03*
D13*
X191135000Y-99695000D03*
%TD*%
D14*
%TO.C,C7*%
X138510000Y-113665000D03*
X143510000Y-113665000D03*
%TD*%
D15*
%TO.C,J14*%
X194945000Y-50165000D03*
D16*
X194945000Y-52705000D03*
X194945000Y-55245000D03*
X194945000Y-57785000D03*
X194945000Y-60325000D03*
X194945000Y-62865000D03*
X194945000Y-65405000D03*
X194945000Y-67945000D03*
%TD*%
D12*
%TO.C,R53*%
X165735000Y-109865000D03*
D13*
X158115000Y-109865000D03*
%TD*%
D12*
%TO.C,R41*%
X165100000Y-63540000D03*
D13*
X157480000Y-63540000D03*
%TD*%
D12*
%TO.C,R23*%
X183515000Y-132070000D03*
D13*
X191135000Y-132070000D03*
%TD*%
D14*
%TO.C,FB2*%
X160020000Y-130810000D03*
D11*
X160020000Y-138430000D03*
%TD*%
D12*
%TO.C,R24*%
X183515000Y-134610000D03*
D13*
X191135000Y-134610000D03*
%TD*%
D12*
%TO.C,R46*%
X165100000Y-76240000D03*
D13*
X157480000Y-76240000D03*
%TD*%
D14*
%TO.C,C12*%
X144145000Y-71040000D03*
X144145000Y-66040000D03*
%TD*%
D12*
%TO.C,R60*%
X165735000Y-127635000D03*
D13*
X158115000Y-127635000D03*
%TD*%
D12*
%TO.C,R15*%
X183515000Y-87630000D03*
D13*
X191135000Y-87630000D03*
%TD*%
D10*
%TO.C,C1*%
X144780000Y-120015000D03*
D14*
X147280000Y-120015000D03*
%TD*%
%TO.C,C6*%
X147955000Y-102830000D03*
X147955000Y-97830000D03*
%TD*%
D12*
%TO.C,R52*%
X158115000Y-92075000D03*
D13*
X158115000Y-99695000D03*
%TD*%
D10*
%TO.C,U1*%
X168910000Y-63540000D03*
D11*
X168910000Y-66080000D03*
X168910000Y-68620000D03*
X168910000Y-71160000D03*
X168910000Y-73700000D03*
X168910000Y-76240000D03*
X168910000Y-78780000D03*
X168910000Y-81320000D03*
X176530000Y-81320000D03*
X176530000Y-78780000D03*
X176530000Y-76240000D03*
X176530000Y-73700000D03*
X176530000Y-71160000D03*
X176530000Y-68620000D03*
X176530000Y-66080000D03*
X176530000Y-63540000D03*
%TD*%
D12*
%TO.C,R14*%
X183515000Y-85090000D03*
D13*
X191135000Y-85090000D03*
%TD*%
D12*
%TO.C,R18*%
X183515000Y-119370000D03*
D13*
X191135000Y-119370000D03*
%TD*%
D14*
%TO.C,FB3*%
X134620000Y-126365000D03*
D11*
X142240000Y-126365000D03*
%TD*%
D12*
%TO.C,R12*%
X183515000Y-80010000D03*
D13*
X191135000Y-80010000D03*
%TD*%
D15*
%TO.C,J16*%
X139700000Y-135890000D03*
D16*
X139700000Y-133350000D03*
X142240000Y-135890000D03*
X142240000Y-133350000D03*
X144780000Y-135890000D03*
X144780000Y-133350000D03*
X147320000Y-135890000D03*
X147320000Y-133350000D03*
X149860000Y-135890000D03*
X149860000Y-133350000D03*
X152400000Y-135890000D03*
X152400000Y-133350000D03*
%TD*%
D10*
%TO.C,D13*%
X121285000Y-55880000D03*
D11*
X121285000Y-63500000D03*
%TD*%
D10*
%TO.C,D1*%
X151765000Y-55880000D03*
D11*
X151765000Y-63500000D03*
%TD*%
D12*
%TO.C,R58*%
X165735000Y-122565000D03*
D13*
X158115000Y-122565000D03*
%TD*%
D12*
%TO.C,R33*%
X183515000Y-94615000D03*
D13*
X191135000Y-94615000D03*
%TD*%
D20*
%TO.C,A1*%
X118745000Y-93980000D03*
X126365000Y-93980000D03*
X144145000Y-93980000D03*
X146685000Y-93980000D03*
X146685000Y-78940000D03*
X144145000Y-78940000D03*
X141605000Y-78940000D03*
X136525000Y-78940000D03*
X133985000Y-78940000D03*
X131445000Y-78940000D03*
X128905000Y-78940000D03*
X126365000Y-78940000D03*
X123825000Y-78940000D03*
X121285000Y-78940000D03*
X127635000Y-81380000D03*
X130175000Y-81380000D03*
D21*
X146685000Y-81380000D03*
X146685000Y-86460000D03*
%TD*%
D12*
%TO.C,R1*%
X154305000Y-55880000D03*
D13*
X154305000Y-63500000D03*
%TD*%
D12*
%TO.C,R28*%
X183515000Y-57785000D03*
D13*
X191135000Y-57785000D03*
%TD*%
D12*
%TO.C,R29*%
X183515000Y-60325000D03*
D13*
X191135000Y-60325000D03*
%TD*%
D12*
%TO.C,R9*%
X183515000Y-72390000D03*
D13*
X191135000Y-72390000D03*
%TD*%
D12*
%TO.C,R30*%
X183515000Y-62865000D03*
D13*
X191135000Y-62865000D03*
%TD*%
D14*
%TO.C,C4*%
X179705000Y-63500000D03*
X179705000Y-68500000D03*
%TD*%
D12*
%TO.C,R67*%
X147955000Y-113030000D03*
D13*
X147955000Y-105410000D03*
%TD*%
D12*
%TO.C,R51*%
X167005000Y-86360000D03*
D13*
X159385000Y-86360000D03*
%TD*%
D15*
%TO.C,J11*%
X194945000Y-72390000D03*
D16*
X194945000Y-74930000D03*
X194945000Y-77470000D03*
X194945000Y-80010000D03*
X194945000Y-82550000D03*
X194945000Y-85090000D03*
X194945000Y-87630000D03*
X194945000Y-90170000D03*
%TD*%
D14*
%TO.C,C5*%
X180340000Y-110490000D03*
X180340000Y-105490000D03*
%TD*%
M02*
