M48
; DRILL file {KiCad 7.0.10} date Wed Nov 13 09:03:00 2024
; FORMAT={-:-/ absolute / inch / decimal}
; #@! TF.CreationDate,2024-11-13T09:03:00+00:00
; #@! TF.GenerationSoftware,Kicad,Pcbnew,7.0.10
; #@! TF.FileFunction,MixedPlating,1,2
FMAT,2
INCH
; #@! TA.AperFunction,Plated,PTH,ViaDrill
T1C0.0157
; #@! TA.AperFunction,Plated,PTH,ComponentDrill
T2C0.0276
; #@! TA.AperFunction,Plated,PTH,ComponentDrill
T3C0.0295
; #@! TA.AperFunction,Plated,PTH,ComponentDrill
T4C0.0315
; #@! TA.AperFunction,Plated,PTH,ComponentDrill
T5C0.0394
; #@! TA.AperFunction,NonPlated,NPTH,ComponentDrill
T6C0.1260
%
G90
G05
T1
X5.025Y-2.375
X5.431Y-3.001
X5.525Y-2.375
X6.125Y-2.958
X6.125Y-3.375
X6.175Y-4.05
X6.667Y-4.243
X6.675Y-3.825
X6.736Y-3.543
X6.85Y-3.775
X6.975Y-3.775
X7.025Y-3.375
X7.3025Y-2.225
X7.3085Y-3.975
X7.3311Y-2.325
X7.3371Y-4.075
X7.3596Y-2.425
X7.3656Y-4.175
X7.3882Y-2.525
X7.3942Y-4.275
X7.4167Y-2.625
X7.4227Y-4.375
X7.4453Y-2.75
X7.4513Y-4.5
T2
X4.875Y-2.2
X4.875Y-2.5
X5.075Y-2.2
X5.075Y-2.5
X5.275Y-2.2
X5.275Y-2.5
X5.275Y-3.9484
X5.275Y-4.2484
X5.475Y-2.2
X5.475Y-2.5
X5.675Y-2.2
X5.675Y-2.5
X5.825Y-4.15
X5.825Y-4.45
X5.875Y-2.2
X5.875Y-2.5
X5.925Y-3.85
X5.925Y-4.15
X6.025Y-4.15
X6.025Y-4.45
X6.075Y-2.2
X6.075Y-2.5
X6.125Y-3.625
X6.125Y-3.925
X6.2Y-2.5016
X6.2Y-2.6016
X6.2Y-2.7016
X6.2Y-2.8016
X6.2Y-2.9016
X6.2Y-3.0016
X6.2Y-3.1016
X6.2Y-3.2016
X6.225Y-3.625
X6.225Y-3.925
X6.225Y-4.3254
X6.225Y-4.4254
X6.225Y-4.5254
X6.225Y-4.6254
X6.225Y-4.7254
X6.225Y-4.8254
X6.225Y-4.9254
X6.225Y-5.025
X6.275Y-3.4
X6.275Y-3.5
X6.275Y-4.05
X6.275Y-4.15
X6.5Y-2.5016
X6.5Y-2.6016
X6.5Y-2.7016
X6.5Y-2.8016
X6.5Y-2.9016
X6.5Y-3.0016
X6.5Y-3.1016
X6.5Y-3.2016
X6.525Y-4.3254
X6.525Y-4.4254
X6.525Y-4.5254
X6.525Y-4.6254
X6.525Y-4.7254
X6.525Y-4.8254
X6.525Y-4.9254
X6.525Y-5.025
X6.575Y-3.4
X6.575Y-3.5
X6.575Y-4.05
X6.575Y-4.15
X6.65Y-2.375
X6.775Y-3.5
X6.775Y-4.05
X6.95Y-2.375
X7.075Y-3.5
X7.075Y-4.05
X7.225Y-1.975
X7.225Y-2.075
X7.225Y-2.175
X7.225Y-2.275
X7.225Y-2.375
X7.225Y-2.475
X7.225Y-2.575
X7.225Y-2.675
X7.225Y-2.85
X7.225Y-2.95
X7.225Y-3.05
X7.225Y-3.15
X7.225Y-3.25
X7.225Y-3.35
X7.225Y-3.45
X7.225Y-3.55
X7.225Y-3.725
X7.225Y-3.825
X7.225Y-3.925
X7.225Y-4.025
X7.225Y-4.125
X7.225Y-4.225
X7.225Y-4.325
X7.225Y-4.425
X7.225Y-4.5996
X7.225Y-4.6996
X7.225Y-4.7996
X7.225Y-4.8996
X7.225Y-4.9996
X7.225Y-5.0996
X7.225Y-5.1996
X7.225Y-5.2996
X7.525Y-1.975
X7.525Y-2.075
X7.525Y-2.175
X7.525Y-2.275
X7.525Y-2.375
X7.525Y-2.475
X7.525Y-2.575
X7.525Y-2.675
X7.525Y-2.85
X7.525Y-2.95
X7.525Y-3.05
X7.525Y-3.15
X7.525Y-3.25
X7.525Y-3.35
X7.525Y-3.45
X7.525Y-3.55
X7.525Y-3.725
X7.525Y-3.825
X7.525Y-3.925
X7.525Y-4.025
X7.525Y-4.125
X7.525Y-4.225
X7.525Y-4.325
X7.525Y-4.425
X7.525Y-4.5996
X7.525Y-4.6996
X7.525Y-4.7996
X7.525Y-4.8996
X7.525Y-4.9996
X7.525Y-5.0996
X7.525Y-5.1996
X7.525Y-5.2996
T3
X6.775Y-5.175
X6.775Y-5.275
X6.825Y-5.225
T4
X4.775Y-2.2
X4.775Y-2.5
X4.775Y-2.6
X4.775Y-2.9
X4.975Y-2.2
X4.975Y-2.5
X4.975Y-2.6
X4.975Y-2.9
X5.175Y-2.2
X5.175Y-2.5
X5.175Y-2.6
X5.175Y-2.9
X5.3Y-4.975
X5.375Y-2.2
X5.375Y-2.5
X5.375Y-2.6
X5.375Y-2.9
X5.4Y-4.05
X5.4Y-4.15
X5.4Y-4.25
X5.4Y-4.35
X5.4016Y-4.725
X5.4531Y-4.475
X5.5Y-4.725
X5.575Y-2.2
X5.575Y-2.5
X5.575Y-2.6
X5.575Y-2.9
X5.6Y-4.975
X5.65Y-4.475
X5.675Y-2.6
X5.675Y-2.7969
X5.7Y-4.05
X5.7Y-4.15
X5.7Y-4.25
X5.7Y-4.35
X5.7Y-4.725
X5.7Y-4.975
X5.775Y-2.2
X5.775Y-2.5
X5.775Y-2.6
X5.775Y-2.9
X5.7984Y-4.725
X5.825Y-3.8516
X5.825Y-4.0484
X5.975Y-2.2
X5.975Y-2.5
X5.975Y-2.6
X5.975Y-2.9
X6.0Y-4.975
X6.3Y-5.15
X6.3Y-5.45
X6.375Y-3.625
X6.375Y-3.925
X6.475Y-3.625
X6.475Y-3.925
X6.5Y-5.2516
X6.5Y-5.35
X6.575Y-3.625
X6.575Y-3.925
X6.65Y-2.5016
X6.65Y-2.6016
X6.65Y-2.7016
X6.65Y-2.8016
X6.65Y-2.9016
X6.65Y-3.0016
X6.65Y-3.1016
X6.65Y-3.2016
X6.6734Y-4.325
X6.6734Y-4.425
X6.6734Y-4.525
X6.6734Y-4.625
X6.6734Y-4.725
X6.6734Y-4.825
X6.6734Y-4.925
X6.6734Y-5.025
X6.675Y-3.3266
X6.675Y-3.5234
X6.675Y-3.625
X6.675Y-3.925
X6.6781Y-4.15
X6.7266Y-5.4
X6.775Y-3.625
X6.775Y-3.925
X6.875Y-3.625
X6.875Y-3.925
X6.875Y-4.15
X6.9234Y-5.4
X6.95Y-2.5016
X6.95Y-2.6016
X6.95Y-2.7016
X6.95Y-2.8016
X6.95Y-2.9016
X6.95Y-3.0016
X6.95Y-3.1016
X6.95Y-3.2016
X6.9734Y-4.325
X6.9734Y-4.425
X6.9734Y-4.525
X6.9734Y-4.625
X6.9734Y-4.725
X6.9734Y-4.825
X6.9734Y-4.925
X6.9734Y-5.025
X6.975Y-3.625
X6.975Y-3.925
X7.025Y-5.2031
X7.025Y-5.4
X7.075Y-2.5
X7.075Y-2.6969
X7.1Y-4.1531
X7.1Y-4.35
T5
X4.675Y-3.7
X4.775Y-3.1079
X4.875Y-2.025
X4.875Y-3.1079
X4.975Y-2.025
X4.975Y-3.1079
X4.975Y-3.7
X5.025Y-3.2039
X5.075Y-2.025
X5.075Y-3.1079
X5.125Y-3.2039
X5.125Y-4.0488
X5.125Y-4.1488
X5.125Y-4.2488
X5.125Y-4.3488
X5.175Y-2.025
X5.175Y-3.1079
X5.275Y-2.025
X5.275Y-3.1079
X5.375Y-2.025
X5.375Y-3.1079
X5.5Y-5.25
X5.5Y-5.35
X5.575Y-2.025
X5.575Y-3.1079
X5.6Y-5.25
X5.6Y-5.35
X5.675Y-2.025
X5.675Y-3.1079
X5.675Y-3.7
X5.7Y-5.25
X5.7Y-5.35
X5.775Y-2.025
X5.775Y-3.1079
X5.775Y-3.2039
X5.775Y-3.4039
X5.775Y-3.7
X5.8Y-5.25
X5.8Y-5.35
X5.875Y-2.025
X5.9Y-5.25
X5.9Y-5.35
X5.975Y-2.025
X6.0Y-5.25
X6.0Y-5.35
X6.075Y-2.025
X7.675Y-1.975
X7.675Y-2.075
X7.675Y-2.175
X7.675Y-2.275
X7.675Y-2.375
X7.675Y-2.475
X7.675Y-2.575
X7.675Y-2.675
X7.675Y-2.85
X7.675Y-2.95
X7.675Y-3.05
X7.675Y-3.15
X7.675Y-3.25
X7.675Y-3.35
X7.675Y-3.45
X7.675Y-3.55
X7.675Y-3.725
X7.675Y-3.825
X7.675Y-3.925
X7.675Y-4.025
X7.675Y-4.125
X7.675Y-4.225
X7.675Y-4.325
X7.675Y-4.425
X7.675Y-4.6
X7.675Y-4.7
X7.675Y-4.8
X7.675Y-4.9
X7.675Y-5.0
X7.675Y-5.1
X7.675Y-5.2
X7.675Y-5.3
X7.675Y-5.4
T6
X4.6Y-2.05
X7.0Y-2.05
M30
